<svg id="svg" version="1.1" xmlns="http://www.w3.org/2000/svg" xmlns:xlink="http://www.w3.org/1999/xlink" width="125" height="125" viewBox="0, 0, 400,400"><g id="svgg"><path id="path0" d="M353.667 188.408 C 331.392 211.661,299.197 245.269,282.124 263.093 L 251.081 295.500 296.624 295.673 C 344.842 295.856,345.975 295.829,351.787 294.322 C 377.429 287.675,393.739 265.753,399.509 230.175 C 399.910 227.705,399.998 222.142,399.999 199.092 L 400.000 171.018 398.989 165.092 C 398.433 161.833,397.806 158.567,397.597 157.833 C 397.387 157.100,397.242 156.387,397.274 156.250 C 397.307 156.112,397.193 156.000,397.022 156.000 C 396.851 156.000,396.779 155.625,396.862 155.167 C 396.954 154.661,396.857 154.333,396.618 154.333 C 396.400 154.333,396.321 154.235,396.442 154.114 C 396.562 153.993,396.475 153.665,396.247 153.383 C 395.908 152.964,395.918 152.923,396.302 153.154 C 396.648 153.363,396.695 153.316,396.484 152.974 C 396.327 152.720,396.163 152.284,396.120 152.006 C 395.853 150.291,395.231 148.333,394.953 148.333 C 394.774 148.333,394.690 148.221,394.767 148.083 C 394.844 147.946,394.741 147.450,394.537 146.982 C 394.178 146.157,392.894 147.459,353.667 188.408 M242.983 309.582 L 237.466 309.682 228.624 318.924 C 223.761 324.008,205.431 343.145,187.891 361.451 C 157.872 392.782,155.241 395.604,156.500 395.121 C 156.775 395.015,157.000 395.085,157.000 395.276 C 157.000 395.466,157.375 395.555,157.833 395.471 C 158.292 395.388,158.667 395.476,158.667 395.667 C 158.667 395.857,159.039 395.945,159.495 395.863 C 159.950 395.780,160.416 395.865,160.531 396.050 C 160.646 396.236,161.098 396.297,161.536 396.187 C 161.975 396.077,162.333 396.125,162.333 396.294 C 162.333 396.462,162.821 396.615,163.417 396.633 C 164.829 396.677,166.151 396.881,168.000 397.340 C 168.825 397.545,169.909 397.654,170.409 397.582 C 170.908 397.510,171.358 397.561,171.409 397.694 C 171.894 398.985,209.033 400.137,218.833 399.165 C 219.567 399.093,221.742 398.940,223.667 398.827 C 264.410 396.429,292.039 382.745,297.198 362.409 L 298.018 359.177 297.987 335.187 C 297.970 321.993,297.872 310.778,297.770 310.266 L 297.583 309.333 273.042 309.408 C 259.544 309.449,246.017 309.528,242.983 309.582 M261.000 334.677 C 273.172 338.207,277.145 354.019,268.167 363.198 C 257.484 374.118,238.740 366.588,238.633 351.332 C 238.550 339.456,249.461 331.331,261.000 334.677 " stroke="none" fill="#fccc39" fill-rule="evenodd"></path><path id="path1" d="M183.667 0.198 C 182.842 0.264,179.842 0.481,177.000 0.680 C 135.966 3.558,109.463 16.777,104.306 36.939 C 103.703 39.297,103.667 40.887,103.667 64.720 L 103.667 90.000 152.320 90.000 L 200.974 90.000 201.070 96.969 C 201.123 100.801,201.072 103.879,200.957 103.807 C 200.399 103.461,57.632 103.665,55.305 104.016 C 30.095 107.811,11.987 126.888,4.372 157.674 C -4.959 195.402,1.071 253.866,16.297 273.301 C 16.814 273.960,17.433 274.875,17.673 275.333 C 18.437 276.794,21.235 280.321,21.455 280.101 C 21.571 279.984,21.667 280.041,21.667 280.227 C 21.667 280.816,25.197 284.659,25.743 284.664 C 25.877 284.666,74.777 236.043,134.410 176.614 C 194.043 117.186,252.733 58.702,264.833 46.650 L 286.833 24.737 284.917 22.860 C 283.862 21.827,283.000 21.061,283.000 21.158 C 283.000 21.254,282.727 21.071,282.392 20.750 C 280.937 19.353,279.675 18.385,277.333 16.869 C 275.958 15.979,274.458 14.998,274.000 14.689 C 273.542 14.380,271.592 13.361,269.667 12.425 C 256.874 6.203,243.431 2.854,222.968 0.793 C 218.172 0.310,187.981 -0.147,183.667 0.198 M149.790 31.503 C 162.878 34.912,167.348 50.850,157.910 60.455 C 148.334 70.198,131.461 65.161,128.697 51.734 C 126.183 39.521,137.799 28.379,149.790 31.503 " stroke="none" fill="#347caf" fill-rule="evenodd"></path><path id="path2" d="M310.234 129.069 C 310.091 159.582,310.194 157.776,308.128 166.000 C 303.461 184.575,291.156 197.955,274.253 202.833 C 264.896 205.533,262.630 205.642,214.333 205.729 C 192.058 205.768,175.567 205.883,177.686 205.984 L 181.539 206.167 142.853 246.539 L 104.167 286.911 103.986 279.705 C 103.886 275.742,103.812 290.875,103.821 313.333 L 103.837 354.167 104.713 357.333 C 108.573 371.292,121.671 384.006,138.167 389.806 C 139.083 390.129,140.107 390.537,140.441 390.714 C 141.206 391.119,146.518 392.667,147.144 392.667 C 147.401 392.667,147.661 392.795,147.722 392.951 C 147.833 393.236,151.497 394.212,153.638 394.527 C 154.263 394.619,154.998 394.819,155.269 394.971 C 155.621 395.168,156.060 394.902,156.798 394.046 C 157.367 393.386,173.065 376.943,191.682 357.506 C 210.299 338.069,228.214 319.358,231.492 315.924 L 237.454 309.682 242.977 309.582 C 246.015 309.528,237.737 309.449,224.583 309.408 L 200.667 309.333 200.667 302.667 L 200.667 296.000 268.083 295.919 C 332.206 295.841,333.438 295.829,293.291 295.669 L 251.081 295.500 282.124 263.093 C 299.197 245.269,331.392 211.659,353.667 188.404 C 383.501 157.257,394.226 146.260,394.393 146.645 C 394.590 147.099,394.623 147.093,394.643 146.603 C 394.656 146.293,394.514 145.945,394.328 145.830 C 394.142 145.715,394.075 145.481,394.181 145.310 C 394.286 145.140,394.207 145.000,394.005 145.000 C 393.803 145.000,393.675 144.813,393.721 144.583 C 393.861 143.889,393.344 142.333,392.974 142.333 C 392.783 142.333,392.724 142.177,392.842 141.985 C 392.961 141.794,392.913 141.457,392.737 141.235 C 392.562 141.014,392.077 139.864,391.662 138.679 C 386.128 122.904,370.880 106.827,358.000 103.189 C 357.542 103.059,355.817 102.560,354.167 102.079 L 351.167 101.206 330.766 101.088 L 310.365 100.971 310.234 129.069 " stroke="none" fill="#fcd643" fill-rule="evenodd"></path><path id="path3" d="M156.227 154.834 C 84.577 226.242,25.859 284.667,25.743 284.667 C 25.627 284.667,25.000 284.181,24.349 283.587 C 23.699 282.993,24.062 283.443,25.156 284.587 C 26.250 285.731,27.338 286.667,27.573 286.667 C 27.808 286.667,28.000 286.826,28.000 287.020 C 28.000 287.214,28.173 287.266,28.385 287.135 C 28.608 286.997,28.680 287.043,28.555 287.244 C 27.837 288.407,37.988 294.313,44.378 296.451 C 50.491 298.497,52.683 298.667,72.959 298.667 L 91.000 298.667 91.001 273.750 C 91.002 248.866,91.180 243.754,92.219 238.667 C 92.499 237.292,92.770 235.867,92.820 235.500 C 92.871 235.133,92.992 234.608,93.091 234.333 C 93.584 232.958,95.093 227.770,95.127 227.333 C 95.149 227.058,95.354 226.635,95.583 226.393 C 95.959 225.995,96.146 225.256,96.039 224.583 C 96.018 224.446,96.138 224.333,96.306 224.333 C 96.474 224.333,96.882 223.621,97.212 222.750 C 97.542 221.879,98.159 220.651,98.584 220.020 C 99.009 219.389,99.278 218.669,99.182 218.419 C 99.086 218.170,99.140 218.047,99.302 218.147 C 99.586 218.323,99.958 217.749,99.874 217.264 C 99.852 217.135,100.133 216.786,100.500 216.490 C 100.867 216.193,100.981 216.044,100.754 216.159 C 100.484 216.295,100.408 216.192,100.535 215.861 C 100.642 215.582,100.851 215.387,100.998 215.427 C 101.146 215.467,101.288 215.393,101.314 215.263 C 101.370 214.982,101.856 214.386,104.924 210.833 C 107.592 207.744,108.079 207.273,111.000 204.949 C 112.192 204.001,113.135 203.117,113.096 202.985 C 113.058 202.853,113.283 202.765,113.596 202.789 C 113.910 202.813,114.125 202.635,114.075 202.392 C 114.025 202.149,114.128 202.040,114.305 202.149 C 114.728 202.411,116.738 201.183,116.415 200.860 C 116.279 200.723,116.328 200.661,116.524 200.722 C 116.918 200.845,121.045 198.999,121.371 198.555 C 121.483 198.402,121.708 198.283,121.871 198.290 C 122.518 198.321,123.667 197.912,123.667 197.651 C 123.667 197.499,123.929 197.375,124.250 197.375 C 124.571 197.375,126.108 196.983,127.667 196.504 C 135.527 194.087,131.537 194.239,193.500 193.994 C 254.330 193.753,250.619 193.877,259.000 191.802 C 281.223 186.300,294.880 171.213,297.313 149.475 C 298.043 142.955,297.809 46.912,297.054 43.480 C 296.318 40.131,294.551 35.265,293.797 34.511 C 293.529 34.243,293.330 33.935,293.354 33.826 C 293.443 33.434,290.874 29.326,289.821 28.176 C 289.228 27.529,288.829 27.000,288.934 27.000 C 289.039 27.000,288.694 26.550,288.167 26.000 C 287.640 25.450,287.049 25.000,286.854 25.001 C 286.659 25.002,227.877 83.427,156.227 154.834 " stroke="none" fill="#346c94" fill-rule="evenodd"></path><path id="path4" d="M150.167 206.175 C 147.476 206.559,144.759 207.104,141.333 207.948 C 137.527 208.886,130.693 211.730,126.610 214.076 C 117.815 219.129,109.305 229.558,106.679 238.500 C 103.926 247.879,103.340 256.007,103.903 277.039 L 104.167 286.911 142.853 246.539 L 181.540 206.167 177.187 205.956 C 169.504 205.584,153.390 205.715,150.167 206.175 " stroke="none" fill="#fce454" fill-rule="evenodd"></path></g></svg>